<mxfile host="65bd71144e">
    <diagram id="LasZ1wvHTWYzx7lPKC6F" name="Page-1">
        <mxGraphModel dx="793" dy="823" grid="1" gridSize="10" guides="1" tooltips="1" connect="1" arrows="1" fold="1" page="1" pageScale="1" pageWidth="850" pageHeight="1100" background="#ffffff" math="0" shadow="0">
            <root>
                <mxCell id="0"/>
                <mxCell id="1" parent="0"/>
                <mxCell id="4" value="" style="edgeStyle=none;html=1;fontColor=#000000;" parent="1" source="2" target="3" edge="1">
                    <mxGeometry relative="1" as="geometry"/>
                </mxCell>
                <mxCell id="22" value="" style="edgeStyle=none;html=1;fontSize=24;strokeColor=#33FF33;fontColor=#000000;" parent="1" source="2" target="3" edge="1">
                    <mxGeometry relative="1" as="geometry"/>
                </mxCell>
                <mxCell id="2" value="Git Push&amp;nbsp;&lt;br&gt;to feature branch" style="rounded=1;whiteSpace=wrap;html=1;fontColor=#000000;fillColor=#999999;" parent="1" vertex="1">
                    <mxGeometry x="50" y="310" width="120" height="60" as="geometry"/>
                </mxCell>
                <mxCell id="6" value="" style="edgeStyle=none;html=1;fillColor=#33FF33;strokeColor=#33FF33;fontColor=#000000;" parent="1" source="3" target="5" edge="1">
                    <mxGeometry relative="1" as="geometry"/>
                </mxCell>
                <mxCell id="3" value="Style Enforcement&lt;br&gt;(ESLint and StyleLint)" style="whiteSpace=wrap;html=1;rounded=1;fontColor=#000000;fillColor=#999999;" parent="1" vertex="1">
                    <mxGeometry x="265" y="380" width="120" height="60" as="geometry"/>
                </mxCell>
                <mxCell id="5" value="Unit Test Suite with Test Coverage Information&lt;br&gt;(Jest + Istanbul)" style="whiteSpace=wrap;html=1;rounded=1;fontColor=#000000;fillColor=#999999;" parent="1" vertex="1">
                    <mxGeometry x="440" y="380" width="140" height="70" as="geometry"/>
                </mxCell>
                <mxCell id="12" value="Ready to commit local changes" style="text;html=1;strokeColor=none;fillColor=none;align=center;verticalAlign=middle;whiteSpace=wrap;rounded=0;fontColor=#000000;" parent="1" vertex="1">
                    <mxGeometry x="114" y="81" width="110" height="50" as="geometry"/>
                </mxCell>
                <mxCell id="13" value="&lt;font style=&quot;font-size: 24px;&quot;&gt;GitHub Action Push Workflow&lt;/font&gt;" style="text;html=1;strokeColor=none;fillColor=none;align=center;verticalAlign=middle;whiteSpace=wrap;rounded=0;fontColor=#000000;" parent="1" vertex="1">
                    <mxGeometry x="207.5" y="340" width="325" height="30" as="geometry"/>
                </mxCell>
                <mxCell id="20" value="" style="edgeStyle=none;html=1;fontSize=24;strokeColor=#0000FF;fontColor=#000000;" parent="1" source="14" target="19" edge="1">
                    <mxGeometry relative="1" as="geometry"/>
                </mxCell>
                <mxCell id="14" value="Run AutoFormatter Locally (ESLint)&amp;nbsp;" style="rounded=1;whiteSpace=wrap;html=1;fontColor=#000000;fillColor=#999999;" parent="1" vertex="1">
                    <mxGeometry x="288" y="170" width="120" height="60" as="geometry"/>
                </mxCell>
                <mxCell id="121" value="" style="edgeStyle=none;html=1;strokeColor=#0000FF;fontSize=24;fillColor=#33FF33;fontColor=#000000;" parent="1" source="15" target="14" edge="1">
                    <mxGeometry relative="1" as="geometry"/>
                </mxCell>
                <mxCell id="15" value="Run Unit Test and &lt;br&gt;E2E Test Suite&lt;br&gt;(Jest +&amp;nbsp;Puppeteer)" style="rounded=1;whiteSpace=wrap;html=1;fontColor=#000000;fillColor=#999999;" parent="1" vertex="1">
                    <mxGeometry x="55" y="160" width="155" height="80" as="geometry"/>
                </mxCell>
                <mxCell id="21" value="" style="edgeStyle=none;html=1;fontSize=24;strokeColor=#0000FF;entryX=1;entryY=0.5;entryDx=0;entryDy=0;fontColor=#000000;" parent="1" source="19" target="2" edge="1">
                    <mxGeometry relative="1" as="geometry">
                        <mxPoint x="150" y="330" as="targetPoint"/>
                    </mxGeometry>
                </mxCell>
                <mxCell id="19" value="Git Commit" style="whiteSpace=wrap;html=1;rounded=1;fontColor=#000000;arcSize=20;fillColor=#999999;" parent="1" vertex="1">
                    <mxGeometry x="395" y="270" width="120" height="60" as="geometry"/>
                </mxCell>
                <mxCell id="23" value="&lt;span style=&quot;font-size: 12px;&quot;&gt;Initiates&lt;/span&gt;" style="text;html=1;strokeColor=none;fillColor=none;align=center;verticalAlign=middle;whiteSpace=wrap;rounded=0;fontSize=24;fontColor=#000000;" parent="1" vertex="1">
                    <mxGeometry x="170" y="370" width="60" height="30" as="geometry"/>
                </mxCell>
                <mxCell id="31" value="" style="edgeStyle=none;html=1;fontSize=12;fontColor=#000000;" parent="1" source="29" target="30" edge="1">
                    <mxGeometry relative="1" as="geometry"/>
                </mxCell>
                <mxCell id="75" value="" style="edgeStyle=none;html=1;strokeColor=#00FF00;fontColor=#000000;" parent="1" source="29" target="74" edge="1">
                    <mxGeometry relative="1" as="geometry"/>
                </mxCell>
                <mxCell id="29" value="Pull Request from feature branch" style="rounded=1;whiteSpace=wrap;html=1;fontSize=12;fontColor=#000000;fillColor=#999999;" parent="1" vertex="1">
                    <mxGeometry x="183" y="580" width="120" height="60" as="geometry"/>
                </mxCell>
                <mxCell id="40" value="" style="edgeStyle=none;html=1;fontSize=12;strokeColor=#0000FF;fontColor=#000000;" parent="1" source="30" target="39" edge="1">
                    <mxGeometry relative="1" as="geometry"/>
                </mxCell>
                <mxCell id="30" value="Pull request manual code review" style="rounded=1;whiteSpace=wrap;html=1;fontSize=12;fontColor=#000000;fillColor=#999999;" parent="1" vertex="1">
                    <mxGeometry x="418" y="580" width="120" height="60" as="geometry"/>
                </mxCell>
                <mxCell id="32" value="Assign reviewer" style="text;html=1;strokeColor=none;fillColor=none;align=center;verticalAlign=middle;whiteSpace=wrap;rounded=0;fontSize=12;fontColor=#000000;" parent="1" vertex="1">
                    <mxGeometry x="308" y="580" width="100" height="30" as="geometry"/>
                </mxCell>
                <mxCell id="34" value="Link PR to active GitHub Issue" style="text;html=1;strokeColor=none;fillColor=none;align=center;verticalAlign=middle;whiteSpace=wrap;rounded=0;fontSize=12;fontColor=#000000;" parent="1" vertex="1">
                    <mxGeometry x="305.5" y="610" width="105" height="40" as="geometry"/>
                </mxCell>
                <mxCell id="38" value="" style="edgeStyle=none;html=1;fontSize=24;exitX=0.5;exitY=1;exitDx=0;exitDy=0;entryX=0.5;entryY=0;entryDx=0;entryDy=0;strokeColor=#0000FF;fontColor=#000000;" parent="1" source="5" target="29" edge="1">
                    <mxGeometry relative="1" as="geometry">
                        <mxPoint x="574.9972391767212" y="439.1" as="sourcePoint"/>
                        <mxPoint x="325" y="570" as="targetPoint"/>
                    </mxGeometry>
                </mxCell>
                <mxCell id="42" value="" style="edgeStyle=none;html=1;fontSize=12;fontColor=#000000;" parent="1" source="39" target="41" edge="1">
                    <mxGeometry relative="1" as="geometry"/>
                </mxCell>
                <mxCell id="43" value="" style="edgeStyle=none;html=1;fontSize=12;strokeColor=#0000FF;fontColor=#000000;" parent="1" source="39" target="41" edge="1">
                    <mxGeometry relative="1" as="geometry"/>
                </mxCell>
                <mxCell id="39" value="Merge Branch with Main" style="whiteSpace=wrap;html=1;rounded=1;fontColor=#000000;fillColor=#999999;" parent="1" vertex="1">
                    <mxGeometry x="700" y="580" width="120" height="60" as="geometry"/>
                </mxCell>
                <mxCell id="41" value="Close issue and feature branch" style="whiteSpace=wrap;html=1;rounded=1;fontColor=#000000;fillColor=#999999;" parent="1" vertex="1">
                    <mxGeometry x="425" y="810" width="120" height="60" as="geometry"/>
                </mxCell>
                <mxCell id="44" value="Deployment" style="whiteSpace=wrap;html=1;rounded=1;fontColor=#000000;fillColor=#999999;" parent="1" vertex="1">
                    <mxGeometry x="217.5" y="835" width="120" height="60" as="geometry"/>
                </mxCell>
                <mxCell id="51" value="" style="curved=1;endArrow=classic;html=1;exitX=0;exitY=1;exitDx=0;exitDy=0;strokeColor=#FF3333;entryX=0;entryY=0.5;entryDx=0;entryDy=0;fontColor=#000000;" parent="1" source="3" target="58" edge="1">
                    <mxGeometry width="50" height="50" relative="1" as="geometry">
                        <mxPoint x="255" y="470" as="sourcePoint"/>
                        <mxPoint x="35" y="80" as="targetPoint"/>
                        <Array as="points">
                            <mxPoint x="220" y="460"/>
                            <mxPoint x="170" y="490"/>
                            <mxPoint x="55" y="490"/>
                            <mxPoint x="40" y="400"/>
                            <mxPoint x="50" y="210"/>
                            <mxPoint x="50" y="130"/>
                            <mxPoint x="40" y="70"/>
                        </Array>
                    </mxGeometry>
                </mxCell>
                <mxCell id="52" value="Action Fails Linter Rule" style="text;html=1;strokeColor=none;fillColor=none;align=center;verticalAlign=middle;whiteSpace=wrap;rounded=0;fontColor=#000000;" parent="1" vertex="1">
                    <mxGeometry x="60" y="450" width="130" height="30" as="geometry"/>
                </mxCell>
                <mxCell id="55" value="" style="curved=1;endArrow=classic;html=1;strokeColor=#FF3333;exitX=0.75;exitY=0;exitDx=0;exitDy=0;entryX=1;entryY=0.75;entryDx=0;entryDy=0;fontColor=#000000;" parent="1" source="5" target="58" edge="1">
                    <mxGeometry width="50" height="50" relative="1" as="geometry">
                        <mxPoint x="540" y="270" as="sourcePoint"/>
                        <mxPoint x="180" y="70" as="targetPoint"/>
                        <Array as="points">
                            <mxPoint x="590" y="230"/>
                            <mxPoint x="520" y="190"/>
                            <mxPoint x="520" y="150"/>
                            <mxPoint x="500" y="110"/>
                            <mxPoint x="450" y="100"/>
                            <mxPoint x="260" y="90"/>
                            <mxPoint x="230" y="70"/>
                        </Array>
                    </mxGeometry>
                </mxCell>
                <mxCell id="57" value="Action Fails Unit Test" style="text;html=1;strokeColor=none;fillColor=none;align=center;verticalAlign=middle;whiteSpace=wrap;rounded=0;fontColor=#000000;" parent="1" vertex="1">
                    <mxGeometry x="327.5" y="60" width="135" height="50" as="geometry"/>
                </mxCell>
                <mxCell id="60" value="" style="edgeStyle=none;html=1;strokeColor=#0000FF;fontColor=#000000;" parent="1" source="58" target="15" edge="1">
                    <mxGeometry relative="1" as="geometry"/>
                </mxCell>
                <mxCell id="58" value="Local Repository" style="rounded=1;whiteSpace=wrap;html=1;fontColor=#000000;labelBackgroundColor=none;fillColor=#999999;" parent="1" vertex="1">
                    <mxGeometry x="55" y="30" width="120" height="60" as="geometry"/>
                </mxCell>
                <mxCell id="61" value="" style="curved=1;endArrow=classic;html=1;strokeColor=#FF3333;exitX=1;exitY=0.5;exitDx=0;exitDy=0;fontColor=#000000;" parent="1" source="30" target="58" edge="1">
                    <mxGeometry width="50" height="50" relative="1" as="geometry">
                        <mxPoint x="510" y="570" as="sourcePoint"/>
                        <mxPoint x="180" y="50" as="targetPoint"/>
                        <Array as="points">
                            <mxPoint x="550" y="580"/>
                            <mxPoint x="600" y="570"/>
                            <mxPoint x="610" y="500"/>
                            <mxPoint x="610" y="390"/>
                            <mxPoint x="610" y="220"/>
                            <mxPoint x="590" y="150"/>
                            <mxPoint x="560" y="50"/>
                            <mxPoint x="460" y="40"/>
                        </Array>
                    </mxGeometry>
                </mxCell>
                <mxCell id="62" value="Reviewer Requests &lt;br&gt;PR changes" style="text;html=1;strokeColor=none;fillColor=none;align=center;verticalAlign=middle;whiteSpace=wrap;rounded=0;fontColor=#000000;" parent="1" vertex="1">
                    <mxGeometry x="600" y="370" width="135" height="50" as="geometry"/>
                </mxCell>
                <mxCell id="64" value="" style="curved=1;endArrow=classic;html=1;strokeColor=#FF3333;exitX=0.159;exitY=-0.018;exitDx=0;exitDy=0;exitPerimeter=0;entryX=0.151;entryY=1.006;entryDx=0;entryDy=0;entryPerimeter=0;fontColor=#000000;" parent="1" source="15" target="58" edge="1">
                    <mxGeometry width="50" height="50" relative="1" as="geometry">
                        <mxPoint x="70" y="150" as="sourcePoint"/>
                        <mxPoint x="30" y="100" as="targetPoint"/>
                        <Array as="points">
                            <mxPoint x="70" y="145"/>
                        </Array>
                    </mxGeometry>
                </mxCell>
                <mxCell id="79" value="" style="edgeStyle=none;html=1;fontColor=#000000;" parent="1" source="65" target="78" edge="1">
                    <mxGeometry relative="1" as="geometry"/>
                </mxCell>
                <mxCell id="80" value="" style="edgeStyle=none;html=1;strokeColor=#00FF00;fontColor=#000000;" parent="1" source="65" target="78" edge="1">
                    <mxGeometry relative="1" as="geometry"/>
                </mxCell>
                <mxCell id="65" value="Code Quality Reporting&lt;br&gt;(Code Climate)" style="whiteSpace=wrap;html=1;rounded=1;fontColor=#000000;fillColor=#999999;" parent="1" vertex="1">
                    <mxGeometry x="700" y="690" width="120" height="60" as="geometry"/>
                </mxCell>
                <mxCell id="67" value="" style="edgeStyle=none;html=1;fontSize=24;exitX=0;exitY=1;exitDx=0;exitDy=0;entryX=0.5;entryY=0;entryDx=0;entryDy=0;strokeColor=#00FF00;fontColor=#000000;" parent="1" source="39" target="44" edge="1">
                    <mxGeometry relative="1" as="geometry">
                        <mxPoint x="690" y="640" as="sourcePoint"/>
                        <mxPoint x="530" y="770" as="targetPoint"/>
                    </mxGeometry>
                </mxCell>
                <mxCell id="73" value="" style="edgeStyle=none;html=1;fontSize=12;exitX=0.5;exitY=1;exitDx=0;exitDy=0;strokeColor=#00FF00;fontColor=#000000;" parent="1" source="39" target="65" edge="1">
                    <mxGeometry relative="1" as="geometry">
                        <mxPoint x="749.998947368421" y="650" as="sourcePoint"/>
                        <mxPoint x="626.8410526315789" y="780" as="targetPoint"/>
                    </mxGeometry>
                </mxCell>
                <mxCell id="74" value="Documentation Generated and Deployed&lt;br&gt;(JSDocs)" style="whiteSpace=wrap;html=1;rounded=1;fontColor=#000000;fillColor=#999999;" parent="1" vertex="1">
                    <mxGeometry x="50" y="825" width="140" height="70" as="geometry"/>
                </mxCell>
                <mxCell id="76" value="If changes are approved by reviewer/s" style="text;html=1;strokeColor=none;fillColor=none;align=center;verticalAlign=middle;whiteSpace=wrap;rounded=0;fontSize=12;fontColor=#000000;" parent="1" vertex="1">
                    <mxGeometry x="550" y="580" width="130" height="30" as="geometry"/>
                </mxCell>
                <mxCell id="77" value="Test Coverage &lt;br&gt;Score" style="whiteSpace=wrap;html=1;rounded=1;fontColor=#000000;fillColor=#999999;" parent="1" vertex="1">
                    <mxGeometry x="570" y="810" width="120" height="60" as="geometry"/>
                </mxCell>
                <mxCell id="78" value="Code Maintainability Score" style="whiteSpace=wrap;html=1;rounded=1;fontColor=#000000;fillColor=#999999;" parent="1" vertex="1">
                    <mxGeometry x="700" y="810" width="120" height="60" as="geometry"/>
                </mxCell>
                <mxCell id="81" value="" style="edgeStyle=none;html=1;exitX=0.321;exitY=0.998;exitDx=0;exitDy=0;exitPerimeter=0;strokeColor=#00FF00;fontColor=#000000;" parent="1" source="65" target="77" edge="1">
                    <mxGeometry relative="1" as="geometry">
                        <mxPoint x="740" y="740" as="sourcePoint"/>
                        <mxPoint x="752.5" y="800" as="targetPoint"/>
                    </mxGeometry>
                </mxCell>
                <mxCell id="82" value="Static Analysis Inline PR comments&lt;br&gt;(Code Climate)" style="whiteSpace=wrap;html=1;rounded=1;fontColor=#000000;fillColor=#999999;" parent="1" vertex="1">
                    <mxGeometry x="298" y="700" width="120" height="60" as="geometry"/>
                </mxCell>
                <mxCell id="83" value="" style="edgeStyle=none;html=1;exitX=0.5;exitY=1;exitDx=0;exitDy=0;entryX=0;entryY=0;entryDx=0;entryDy=0;strokeColor=#00FF00;fontColor=#000000;" parent="1" source="29" target="82" edge="1">
                    <mxGeometry relative="1" as="geometry">
                        <mxPoint x="259.60000000000014" y="650" as="sourcePoint"/>
                        <mxPoint x="226.39999999999998" y="690" as="targetPoint"/>
                    </mxGeometry>
                </mxCell>
                <mxCell id="85" value="" style="edgeStyle=none;html=1;exitX=0.75;exitY=0;exitDx=0;exitDy=0;entryX=0.408;entryY=1.02;entryDx=0;entryDy=0;entryPerimeter=0;strokeColor=#0000FF;fontColor=#000000;" parent="1" source="82" target="30" edge="1">
                    <mxGeometry relative="1" as="geometry">
                        <mxPoint x="418" y="680" as="sourcePoint"/>
                        <mxPoint x="473" y="720" as="targetPoint"/>
                    </mxGeometry>
                </mxCell>
                <mxCell id="86" value="Review assesses code quality in PR" style="text;html=1;strokeColor=none;fillColor=none;align=center;verticalAlign=middle;whiteSpace=wrap;rounded=0;fontSize=12;fontColor=#000000;" parent="1" vertex="1">
                    <mxGeometry x="428" y="660" width="120" height="40" as="geometry"/>
                </mxCell>
                <mxCell id="88" value="&lt;font style=&quot;font-size: 24px;&quot;&gt;Deployment&lt;/font&gt;" style="text;html=1;strokeColor=none;fillColor=none;align=center;verticalAlign=middle;whiteSpace=wrap;rounded=0;fontColor=#000000;" parent="1" vertex="1">
                    <mxGeometry x="110" y="780" width="260" height="30" as="geometry"/>
                </mxCell>
                <mxCell id="90" value="&lt;font style=&quot;font-size: 24px;&quot;&gt;Local Development and Testing&lt;/font&gt;" style="text;html=1;strokeColor=none;fillColor=none;align=center;verticalAlign=middle;whiteSpace=wrap;rounded=0;fontColor=#000000;" parent="1" vertex="1">
                    <mxGeometry x="140" y="128" width="345" height="30" as="geometry"/>
                </mxCell>
                <mxCell id="91" value="&lt;font style=&quot;font-size: 24px;&quot;&gt;Pull Request Workflow&lt;br&gt;&lt;/font&gt;" style="text;html=1;strokeColor=none;fillColor=none;align=center;verticalAlign=middle;whiteSpace=wrap;rounded=0;fontColor=#000000;" parent="1" vertex="1">
                    <mxGeometry x="338.5" y="535" width="261.5" height="30" as="geometry"/>
                </mxCell>
                <mxCell id="92" value="GH Action triggered on Pull Request&amp;nbsp;" style="text;html=1;strokeColor=none;fillColor=none;align=center;verticalAlign=middle;whiteSpace=wrap;rounded=0;fontSize=12;fontColor=#000000;" parent="1" vertex="1">
                    <mxGeometry x="70" y="690" width="125" height="40" as="geometry"/>
                </mxCell>
                <mxCell id="118" value="" style="group;fontColor=#000000;fillColor=#999999;" parent="1" vertex="1" connectable="0">
                    <mxGeometry x="649" y="30" width="180" height="210" as="geometry"/>
                </mxCell>
                <mxCell id="109" value="" style="group;fontColor=#000000;" parent="118" vertex="1" connectable="0">
                    <mxGeometry y="120" width="172" height="90" as="geometry"/>
                </mxCell>
                <mxCell id="110" value="" style="endArrow=classic;html=1;strokeColor=#FF3333;fontColor=#000000;" parent="109" edge="1">
                    <mxGeometry width="50" height="50" relative="1" as="geometry">
                        <mxPoint x="122" y="48.89" as="sourcePoint"/>
                        <mxPoint x="172" y="48.89" as="targetPoint"/>
                    </mxGeometry>
                </mxCell>
                <mxCell id="111" value="Return to &lt;br&gt;directed step" style="text;html=1;strokeColor=none;fillColor=none;align=center;verticalAlign=middle;whiteSpace=wrap;rounded=0;fontColor=#000000;" parent="109" vertex="1">
                    <mxGeometry x="20" y="26" width="100" height="50" as="geometry"/>
                </mxCell>
                <mxCell id="95" value="&lt;font style=&quot;font-size: 24px;&quot;&gt;&lt;u&gt;Legend&lt;/u&gt;&lt;/font&gt;" style="text;html=1;strokeColor=none;fillColor=none;align=center;verticalAlign=middle;whiteSpace=wrap;rounded=0;fontColor=#000000;" parent="118" vertex="1">
                    <mxGeometry x="29.75" y="-8" width="112.5" height="60" as="geometry"/>
                </mxCell>
                <mxCell id="98" value="Part of GH Action Workflow" style="text;html=1;strokeColor=none;fillColor=none;align=center;verticalAlign=middle;whiteSpace=wrap;rounded=0;fontColor=#000000;" parent="118" vertex="1">
                    <mxGeometry x="4" y="45" width="130" height="50" as="geometry"/>
                </mxCell>
                <mxCell id="96" value="" style="endArrow=classic;html=1;strokeColor=#57F016;fontColor=#000000;" parent="118" edge="1">
                    <mxGeometry width="50" height="50" relative="1" as="geometry">
                        <mxPoint x="121" y="67" as="sourcePoint"/>
                        <mxPoint x="176" y="66.88999999999999" as="targetPoint"/>
                    </mxGeometry>
                </mxCell>
                <mxCell id="102" value="Manual Step" style="text;html=1;strokeColor=none;fillColor=none;align=center;verticalAlign=middle;whiteSpace=wrap;rounded=0;fontColor=#000000;" parent="118" vertex="1">
                    <mxGeometry x="5" y="97" width="130" height="50" as="geometry"/>
                </mxCell>
                <mxCell id="103" value="" style="endArrow=classic;html=1;strokeColor=#0000FF;fontColor=#000000;" parent="118" edge="1">
                    <mxGeometry width="50" height="50" relative="1" as="geometry">
                        <mxPoint x="122" y="121.44" as="sourcePoint"/>
                        <mxPoint x="172" y="121.44" as="targetPoint"/>
                    </mxGeometry>
                </mxCell>
                <mxCell id="120" value="&lt;font style=&quot;font-size: 24px;&quot;&gt;Code Quality Reporting&lt;/font&gt;" style="text;html=1;strokeColor=none;fillColor=none;align=center;verticalAlign=middle;whiteSpace=wrap;rounded=0;fontColor=#000000;" parent="1" vertex="1">
                    <mxGeometry x="585" y="880" width="260" height="30" as="geometry"/>
                </mxCell>
            </root>
        </mxGraphModel>
    </diagram>
</mxfile>